<?xml version="1.0" encoding="UTF-8"?>
<svg width="56px" height="40px" viewBox="0 0 56 40" version="1.1" xmlns="http://www.w3.org/2000/svg" xmlns:xlink="http://www.w3.org/1999/xlink">
    <title>6CFAF73E-6AE6-4CE5-830D-B6735BE439B5@3x</title>
    <g id="UI" stroke="none" stroke-width="1" fill="none" fill-rule="evenodd">
        <g id="NILE/Admin/2_1" transform="translate(-72.000000, -8.000000)" fill-rule="nonzero">
            <g id="logo" transform="translate(72.000000, 8.000000)">
                <g id="Group" transform="translate(0.000000, 27.160976)" fill="#000000">
                    <polygon id="Path" points="0 0.0175609756 2.75707317 0.0175609756 8.42146341 8.70439024 8.45463415 8.73756098 8.42146341 8.73756098 8.45463415 8.70439024 8.45463415 0.0175609756 10.5365854 0.0175609756 10.5365854 11.7092683 7.89463415 11.7092683 2.11512195 2.74146341 2.08195122 2.74146341 2.08195122 11.7092683 0 11.7092683"></polygon>
                    <polygon id="Path" points="19.7014634 0.0175609756 21.7814634 0.0175609756 21.7814634 11.7092683 19.7014634 11.7092683 19.7014634 0.0175609756"></polygon>
                    <polygon id="Path" points="30.9482927 0.0175609756 33.0282927 0.0175609756 33.0282927 9.82634146 37.9980488 9.82634146 37.9980488 11.7092683 30.9463415 11.7092683 30.9463415 0.0175609756"></polygon>
                    <polygon id="Path" points="46.1229268 0.0175609756 53.8673171 0.0175609756 53.8673171 1.9004878 48.2029268 1.9004878 48.2029268 4.77463415 53.5707317 4.77463415 53.5707317 6.65756098 48.2029268 6.65756098 48.2029268 9.82829268 54.1658537 9.82829268 54.1658537 11.7112195 46.1229268 11.7112195"></polygon>
                </g>
                <g id="Group" transform="translate(17.912195, 0.000000)" fill="#22B473">
                    <path d="M11.7268293,4.15804878 L5.17853659,14.6068293 C5.11219512,14.7121951 4.99707317,14.7746341 4.87414634,14.7746341 L0.376585366,14.7746341 C0.0936585366,14.7746341 -0.0780487805,14.4643902 0.072195122,14.2243902 L8.86634146,0.187317073 C9.00682927,-0.0370731707 9.33463415,-0.0370731707 9.47512195,0.187317073 L11.7268293,3.77756098 C11.7990244,3.89268293 11.7990244,4.04097561 11.7268293,4.15804878 Z" id="Path"></path>
                    <path d="M17.964878,14.7765854 L7.35414634,14.7765854 C7.07121951,14.7765854 6.8995122,14.4643902 7.0497561,14.2243902 L12.3570732,5.75804878 C12.497561,5.53365854 12.8253659,5.53365854 12.9678049,5.75804878 L18.2712195,14.2243902 C18.4195122,14.4663415 18.2478049,14.7765854 17.964878,14.7765854 Z" id="Path"></path>
                </g>
            </g>
        </g>
    </g>
</svg>