<?xml version="1.0" encoding="utf-8"?>
<!-- Generator: Adobe Illustrator 24.0.3, SVG Export Plug-In . SVG Version: 6.00 Build 0)  -->
<svg version="1.1" id="Layer_1" xmlns="http://www.w3.org/2000/svg" xmlns:xlink="http://www.w3.org/1999/xlink" x="0px" y="0px"
	 viewBox="0 0 2776 900" style="enable-background:new 0 0 2776 900;" xml:space="preserve">
<style type="text/css">
	.st1{fill:#22B473;}
</style>
<g>
	<g>
		<path class="st1" d="M1519,212.1l-335.6,535.5c-3.4,5.4-9.3,8.6-15.6,8.6H937.3c-14.5,0-23.3-15.9-15.6-28.2L1372.4,8.6
			c7.2-11.5,24-11.5,31.2,0L1519,192.6C1522.7,198.5,1522.7,206.1,1519,212.1z"/>
		<path class="st1" d="M1838.7,756.3h-543.8c-14.5,0-23.3-16-15.6-28.3l272-433.9c7.2-11.5,24-11.5,31.3,0l271.8,433.9
			C1862,740.4,1853.2,756.3,1838.7,756.3z"/>
	</g>
</g>
</svg>
